<?xml version="1.0" encoding="UTF-8"?>
<svg width="901px" height="255px" viewBox="0 0 901 255" version="1.1" xmlns="http://www.w3.org/2000/svg" xmlns:xlink="http://www.w3.org/1999/xlink">
    <!-- Generator: Sketch 50.2 (55047) - http://www.bohemiancoding.com/sketch -->
    <title>design-6</title>
    <desc>Created with Sketch.</desc>
    <defs>
        <rect id="path-1" x="13.5" y="11.5" width="226" height="128"></rect>
        <rect id="path-3" x="13.5" y="11.5" width="226" height="128"></rect>
        <rect id="path-5" x="13.5" y="11.5" width="226" height="128"></rect>
        <rect id="path-7" x="13.5" y="11.5" width="226" height="128"></rect>
        <rect id="path-9" x="13.5" y="11.5" width="226" height="128"></rect>
    </defs>
    <g id="Page-1" stroke="none" stroke-width="1" fill="none" fill-rule="evenodd">
        <g id="Design-&amp;-Homepage" transform="translate(-149.000000, -3358.000000)">
            <g id="Group-12" transform="translate(0.000000, 3258.000000)">
                <g id="design-6" transform="translate(150.000000, 101.000000)">
                    <g id="design-4">
                        <g id="Quarters" transform="translate(449.500000, 127.000000) rotate(-270.000000) translate(-449.500000, -127.000000) translate(322.500000, 51.500000)">
                            <g id="iMac" transform="translate(0.000000, 0.000000)">
                                <path d="M243.995596,2.84217094e-14 C248.968591,2.84217094e-14 253,4.03888524 253,8.99353313 L253,142.006467 C253,146.973458 248.974891,151 243.995596,151 L9.00440395,151 C4.03140897,151 0,146.961115 0,142.006467 L0,8.99353313 C0,4.02654194 4.02510873,2.84217094e-14 9.00440395,2.84217094e-14 L243.995596,2.84217094e-14 Z" id="Border" stroke="#1597F5" stroke-width="2"></path>
                                <mask id="mask-2" fill="white">
                                    <use xlink:href="#path-1"></use>
                                </mask>
                                <use id="Screen" stroke="#1597F5" xlink:href="#path-1"></use>
                            </g>
                            <path d="M17,15 L125,15 L125,74 L17,74 L17,15 Z M24,53.8888889 C25.4727593,53.8888889 26.6666667,52.6949816 26.6666667,51.2222222 C26.6666667,49.7494629 25.4727593,48.5555556 24,48.5555556 C22.5272407,48.5555556 21.3333333,49.7494629 21.3333333,51.2222222 C21.3333333,52.6949816 22.5272407,53.8888889 24,53.8888889 Z M24,61.8888889 C25.4727593,61.8888889 26.6666667,60.6949816 26.6666667,59.2222222 C26.6666667,57.7494629 25.4727593,56.5555556 24,56.5555556 C22.5272407,56.5555556 21.3333333,57.7494629 21.3333333,59.2222222 C21.3333333,60.6949816 22.5272407,61.8888889 24,61.8888889 Z M24,69.8888889 C25.4727593,69.8888889 26.6666667,68.6949816 26.6666667,67.2222222 C26.6666667,65.7494629 25.4727593,64.5555556 24,64.5555556 C22.5272407,64.5555556 21.3333333,65.7494629 21.3333333,67.2222222 C21.3333333,68.6949816 22.5272407,69.8888889 24,69.8888889 Z" id="Rectangle-94-Copy-2" fill="#1597F5" opacity="0.35"></path>
                            <path d="M17,77 L125,77 L125,136 L17,136 L17,77 Z M24,115.888889 C25.4727593,115.888889 26.6666667,114.694982 26.6666667,113.222222 C26.6666667,111.749463 25.4727593,110.555556 24,110.555556 C22.5272407,110.555556 21.3333333,111.749463 21.3333333,113.222222 C21.3333333,114.694982 22.5272407,115.888889 24,115.888889 Z M24,123.888889 C25.4727593,123.888889 26.6666667,122.694982 26.6666667,121.222222 C26.6666667,119.749463 25.4727593,118.555556 24,118.555556 C22.5272407,118.555556 21.3333333,119.749463 21.3333333,121.222222 C21.3333333,122.694982 22.5272407,123.888889 24,123.888889 Z M24,131.888889 C25.4727593,131.888889 26.6666667,130.694982 26.6666667,129.222222 C26.6666667,127.749463 25.4727593,126.555556 24,126.555556 C22.5272407,126.555556 21.3333333,127.749463 21.3333333,129.222222 C21.3333333,130.694982 22.5272407,131.888889 24,131.888889 Z" id="Rectangle-94-Copy-2" fill="#1597F5" opacity="0.35"></path>
                            <path d="M128,15 L236,15 L236,74 L128,74 L128,15 Z M135,53.8888889 C136.472759,53.8888889 137.666667,52.6949816 137.666667,51.2222222 C137.666667,49.7494629 136.472759,48.5555556 135,48.5555556 C133.527241,48.5555556 132.333333,49.7494629 132.333333,51.2222222 C132.333333,52.6949816 133.527241,53.8888889 135,53.8888889 Z M135,61.8888889 C136.472759,61.8888889 137.666667,60.6949816 137.666667,59.2222222 C137.666667,57.7494629 136.472759,56.5555556 135,56.5555556 C133.527241,56.5555556 132.333333,57.7494629 132.333333,59.2222222 C132.333333,60.6949816 133.527241,61.8888889 135,61.8888889 Z M135,69.8888889 C136.472759,69.8888889 137.666667,68.6949816 137.666667,67.2222222 C137.666667,65.7494629 136.472759,64.5555556 135,64.5555556 C133.527241,64.5555556 132.333333,65.7494629 132.333333,67.2222222 C132.333333,68.6949816 133.527241,69.8888889 135,69.8888889 Z" id="Rectangle-94-Copy-2" fill="#1597F5" opacity="0.35"></path>
                            <path d="M128,77 L236,77 L236,136 L128,136 L128,77 Z M135,115.888889 C136.472759,115.888889 137.666667,114.694982 137.666667,113.222222 C137.666667,111.749463 136.472759,110.555556 135,110.555556 C133.527241,110.555556 132.333333,111.749463 132.333333,113.222222 C132.333333,114.694982 133.527241,115.888889 135,115.888889 Z M135,123.888889 C136.472759,123.888889 137.666667,122.694982 137.666667,121.222222 C137.666667,119.749463 136.472759,118.555556 135,118.555556 C133.527241,118.555556 132.333333,119.749463 132.333333,121.222222 C132.333333,122.694982 133.527241,123.888889 135,123.888889 Z M135,131.888889 C136.472759,131.888889 137.666667,130.694982 137.666667,129.222222 C137.666667,127.749463 136.472759,126.555556 135,126.555556 C133.527241,126.555556 132.333333,127.749463 132.333333,129.222222 C132.333333,130.694982 133.527241,131.888889 135,131.888889 Z" id="Rectangle-94-Copy-2" fill="#1597F5" opacity="0.35"></path>
                            <g id="upper-left-corner-pulse" transform="translate(6.222222, 3.444444)" stroke="#1597F5">
                                <ellipse id="Oval-94" fill="#1597F5" cx="7.45302714" cy="7.4560268" rx="3.72651357" ry="3.7280134"></ellipse>
                                <ellipse id="Oval-95" opacity="0.8" cx="7.45302714" cy="7.4560268" rx="5.58977035" ry="5.5920201"></ellipse>
                                <ellipse id="Oval-96" opacity="0.6" cx="7.45302714" cy="7.4560268" rx="7.45302714" ry="7.4560268"></ellipse>
                            </g>
                            <g id="upper-left-corner-pulse" transform="translate(232.888889, 3.444444)" stroke="#1597F5">
                                <ellipse id="Oval-94" fill="#1597F5" cx="7.45302714" cy="7.4560268" rx="3.72651357" ry="3.7280134"></ellipse>
                                <ellipse id="Oval-95" opacity="0.8" cx="7.45302714" cy="7.4560268" rx="5.58977035" ry="5.5920201"></ellipse>
                                <ellipse id="Oval-96" opacity="0.6" cx="7.45302714" cy="7.4560268" rx="7.45302714" ry="7.4560268"></ellipse>
                            </g>
                            <g id="upper-left-corner-pulse" transform="translate(232.888889, 131.444444)" stroke="#1597F5">
                                <ellipse id="Oval-94" fill="#1597F5" cx="7.45302714" cy="7.4560268" rx="3.72651357" ry="3.7280134"></ellipse>
                                <ellipse id="Oval-95" opacity="0.8" cx="7.45302714" cy="7.4560268" rx="5.58977035" ry="5.5920201"></ellipse>
                                <ellipse id="Oval-96" opacity="0.6" cx="7.45302714" cy="7.4560268" rx="7.45302714" ry="7.4560268"></ellipse>
                            </g>
                            <g id="upper-left-corner-pulse" transform="translate(6.222222, 131.444444)" stroke="#1597F5">
                                <ellipse id="Oval-94" fill="#1597F5" cx="7.45302714" cy="7.4560268" rx="3.72651357" ry="3.7280134"></ellipse>
                                <ellipse id="Oval-95" opacity="0.8" cx="7.45302714" cy="7.4560268" rx="5.58977035" ry="5.5920201"></ellipse>
                                <ellipse id="Oval-96" opacity="0.6" cx="7.45302714" cy="7.4560268" rx="7.45302714" ry="7.4560268"></ellipse>
                            </g>
                        </g>
                        <g id="Halves" transform="translate(561.000000, 0.000000)">
                            <g id="Group-5-Copy" transform="translate(75.500000, 127.000000) rotate(-270.000000) translate(-75.500000, -127.000000) translate(-51.500000, 51.500000)">
                                <g id="iMac" transform="translate(0.000000, 0.000000)">
                                    <path d="M243.995596,2.84217094e-14 C248.968591,2.84217094e-14 253,4.03888524 253,8.99353313 L253,142.006467 C253,146.973458 248.974891,151 243.995596,151 L9.00440395,151 C4.03140897,151 0,146.961115 0,142.006467 L0,8.99353313 C0,4.02654194 4.02510873,2.84217094e-14 9.00440395,2.84217094e-14 L243.995596,2.84217094e-14 Z" id="Border" stroke="#1597F5" stroke-width="2"></path>
                                    <mask id="mask-4" fill="white">
                                        <use xlink:href="#path-3"></use>
                                    </mask>
                                    <use id="Screen" stroke="#1597F5" xlink:href="#path-3"></use>
                                </g>
                            </g>
                            <g transform="translate(6.000000, 17.000000)">
                                <path d="M15.5,104.5 L123.5,104.5 L123.5,225.5 L15.5,225.5 L15.5,104.5 Z M22.5,205.388889 C23.9727593,205.388889 25.1666667,204.194982 25.1666667,202.722222 C25.1666667,201.249463 23.9727593,200.055556 22.5,200.055556 C21.0272407,200.055556 19.8333333,201.249463 19.8333333,202.722222 C19.8333333,204.194982 21.0272407,205.388889 22.5,205.388889 Z M22.5,213.388889 C23.9727593,213.388889 25.1666667,212.194982 25.1666667,210.722222 C25.1666667,209.249463 23.9727593,208.055556 22.5,208.055556 C21.0272407,208.055556 19.8333333,209.249463 19.8333333,210.722222 C19.8333333,212.194982 21.0272407,213.388889 22.5,213.388889 Z M22.5,221.388889 C23.9727593,221.388889 25.1666667,220.194982 25.1666667,218.722222 C25.1666667,217.249463 23.9727593,216.055556 22.5,216.055556 C21.0272407,216.055556 19.8333333,217.249463 19.8333333,218.722222 C19.8333333,220.194982 21.0272407,221.388889 22.5,221.388889 Z" id="Rectangle-94-Copy-2" fill="#1597F5" opacity="0.35" transform="translate(69.500000, 165.000000) rotate(-270.000000) translate(-69.500000, -165.000000) "></path>
                                <path d="M15.5,-6.5 L123.5,-6.5 L123.5,114.5 L15.5,114.5 L15.5,-6.5 Z M22.5,94.3888889 C23.9727593,94.3888889 25.1666667,93.1949816 25.1666667,91.7222222 C25.1666667,90.2494629 23.9727593,89.0555556 22.5,89.0555556 C21.0272407,89.0555556 19.8333333,90.2494629 19.8333333,91.7222222 C19.8333333,93.1949816 21.0272407,94.3888889 22.5,94.3888889 Z M22.5,102.388889 C23.9727593,102.388889 25.1666667,101.194982 25.1666667,99.7222222 C25.1666667,98.2494629 23.9727593,97.0555556 22.5,97.0555556 C21.0272407,97.0555556 19.8333333,98.2494629 19.8333333,99.7222222 C19.8333333,101.194982 21.0272407,102.388889 22.5,102.388889 Z M22.5,110.388889 C23.9727593,110.388889 25.1666667,109.194982 25.1666667,107.722222 C25.1666667,106.249463 23.9727593,105.055556 22.5,105.055556 C21.0272407,105.055556 19.8333333,106.249463 19.8333333,107.722222 C19.8333333,109.194982 21.0272407,110.388889 22.5,110.388889 Z" id="Rectangle-94-Copy-2" fill="#1597F5" opacity="0.35" transform="translate(69.500000, 54.000000) rotate(-270.000000) translate(-69.500000, -54.000000) "></path>
                                <g id="left-edge-pulse">
                                    <rect id="Rectangle-51" fill="#1597F5" x="4" y="5" width="3" height="19" rx="1.5"></rect>
                                    <path d="M2.5,6.00264853 L2.5,22.9973515 C2.5,24.6516299 3.84562095,26 5.5,26 C7.15428161,26 8.5,24.6543079 8.5,22.9973515 L8.5,6.00264853 C8.5,4.34837013 7.15437905,3 5.5,3 C3.84571839,3 2.5,4.34569213 2.5,6.00264853 Z" id="Rectangle-52" stroke="#1597F5" opacity="0.8"></path>
                                    <rect id="Rectangle-53" stroke="#1597F5" opacity="0.6" x="0.5" y="0.5" width="10" height="28" rx="5"></rect>
                                </g>
                                <g id="left-edge-pulse" transform="translate(128.000000, 0.000000)">
                                    <rect id="Rectangle-51" fill="#1597F5" x="4" y="5" width="3" height="19" rx="1.5"></rect>
                                    <path d="M2.5,6.00264853 L2.5,22.9973515 C2.5,24.6516299 3.84562095,26 5.5,26 C7.15428161,26 8.5,24.6543079 8.5,22.9973515 L8.5,6.00264853 C8.5,4.34837013 7.15437905,3 5.5,3 C3.84571839,3 2.5,4.34569213 2.5,6.00264853 Z" id="Rectangle-52" stroke="#1597F5" opacity="0.8"></path>
                                    <rect id="Rectangle-53" stroke="#1597F5" opacity="0.6" x="0.5" y="0.5" width="10" height="28" rx="5"></rect>
                                </g>
                                <g id="left-edge-pulse" transform="translate(0.000000, 190.000000)">
                                    <rect id="Rectangle-51" fill="#1597F5" x="4" y="5" width="3" height="19" rx="1.5"></rect>
                                    <path d="M2.5,6.00264853 L2.5,22.9973515 C2.5,24.6516299 3.84562095,26 5.5,26 C7.15428161,26 8.5,24.6543079 8.5,22.9973515 L8.5,6.00264853 C8.5,4.34837013 7.15437905,3 5.5,3 C3.84571839,3 2.5,4.34569213 2.5,6.00264853 Z" id="Rectangle-52" stroke="#1597F5" opacity="0.8"></path>
                                    <rect id="Rectangle-53" stroke="#1597F5" opacity="0.6" x="0.5" y="0.5" width="10" height="28" rx="5"></rect>
                                </g>
                                <g id="left-edge-pulse" transform="translate(128.000000, 190.000000)">
                                    <rect id="Rectangle-51" fill="#1597F5" x="4" y="5" width="3" height="19" rx="1.5"></rect>
                                    <path d="M2.5,6.00264853 L2.5,22.9973515 C2.5,24.6516299 3.84562095,26 5.5,26 C7.15428161,26 8.5,24.6543079 8.5,22.9973515 L8.5,6.00264853 C8.5,4.34837013 7.15437905,3 5.5,3 C3.84571839,3 2.5,4.34569213 2.5,6.00264853 Z" id="Rectangle-52" stroke="#1597F5" opacity="0.8"></path>
                                    <rect id="Rectangle-53" stroke="#1597F5" opacity="0.6" x="0.5" y="0.5" width="10" height="28" rx="5"></rect>
                                </g>
                            </g>
                        </g>
                        <g id="Thirds">
                            <g id="Group-5-Copy" transform="translate(75.500000, 127.000000) rotate(-270.000000) translate(-75.500000, -127.000000) translate(-51.500000, 51.500000)">
                                <g id="iMac" transform="translate(0.000000, 0.000000)">
                                    <path d="M243.995596,2.84217094e-14 C248.968591,2.84217094e-14 253,4.03888524 253,8.99353313 L253,142.006467 C253,146.973458 248.974891,151 243.995596,151 L9.00440395,151 C4.03140897,151 0,146.961115 0,142.006467 L0,8.99353313 C0,4.02654194 4.02510873,2.84217094e-14 9.00440395,2.84217094e-14 L243.995596,2.84217094e-14 Z" id="Border" stroke="#1597F5" stroke-width="2"></path>
                                    <mask id="mask-6" fill="white">
                                        <use xlink:href="#path-5"></use>
                                    </mask>
                                    <use id="Screen" stroke="#1597F5" xlink:href="#path-5"></use>
                                </g>
                            </g>
                            <g id="Halves" transform="translate(6.000000, 17.000000)">
                                <path d="M34.5,-25.5 L105.5,-25.5 L105.5,95.5 L34.5,95.5 L34.5,-25.5 Z M41.5,75.3888889 C42.9727593,75.3888889 44.1666667,74.1949816 44.1666667,72.7222222 C44.1666667,71.2494629 42.9727593,70.0555556 41.5,70.0555556 C40.0272407,70.0555556 38.8333333,71.2494629 38.8333333,72.7222222 C38.8333333,74.1949816 40.0272407,75.3888889 41.5,75.3888889 Z M41.5,83.3888889 C42.9727593,83.3888889 44.1666667,82.1949816 44.1666667,80.7222222 C44.1666667,79.2494629 42.9727593,78.0555556 41.5,78.0555556 C40.0272407,78.0555556 38.8333333,79.2494629 38.8333333,80.7222222 C38.8333333,82.1949816 40.0272407,83.3888889 41.5,83.3888889 Z M41.5,91.3888889 C42.9727593,91.3888889 44.1666667,90.1949816 44.1666667,88.7222222 C44.1666667,87.2494629 42.9727593,86.0555556 41.5,86.0555556 C40.0272407,86.0555556 38.8333333,87.2494629 38.8333333,88.7222222 C38.8333333,90.1949816 40.0272407,91.3888889 41.5,91.3888889 Z" id="Rectangle-94-Copy-2" fill="#1597F5" opacity="0.35" transform="translate(69.500000, 35.000000) rotate(-270.000000) translate(-69.500000, -35.000000) "></path>
                                <path d="M34.5,48.5 L105.5,48.5 L105.5,169.5 L34.5,169.5 L34.5,48.5 Z M41.5,149.388889 C42.9727593,149.388889 44.1666667,148.194982 44.1666667,146.722222 C44.1666667,145.249463 42.9727593,144.055556 41.5,144.055556 C40.0272407,144.055556 38.8333333,145.249463 38.8333333,146.722222 C38.8333333,148.194982 40.0272407,149.388889 41.5,149.388889 Z M41.5,157.388889 C42.9727593,157.388889 44.1666667,156.194982 44.1666667,154.722222 C44.1666667,153.249463 42.9727593,152.055556 41.5,152.055556 C40.0272407,152.055556 38.8333333,153.249463 38.8333333,154.722222 C38.8333333,156.194982 40.0272407,157.388889 41.5,157.388889 Z M41.5,165.388889 C42.9727593,165.388889 44.1666667,164.194982 44.1666667,162.722222 C44.1666667,161.249463 42.9727593,160.055556 41.5,160.055556 C40.0272407,160.055556 38.8333333,161.249463 38.8333333,162.722222 C38.8333333,164.194982 40.0272407,165.388889 41.5,165.388889 Z" id="Rectangle-94-Copy-2" fill="#1597F5" opacity="0.35" transform="translate(69.500000, 109.000000) rotate(-270.000000) translate(-69.500000, -109.000000) "></path>
                                <path d="M34.5,122.5 L105.5,122.5 L105.5,243.5 L34.5,243.5 L34.5,122.5 Z M41.5,223.388889 C42.9727593,223.388889 44.1666667,222.194982 44.1666667,220.722222 C44.1666667,219.249463 42.9727593,218.055556 41.5,218.055556 C40.0272407,218.055556 38.8333333,219.249463 38.8333333,220.722222 C38.8333333,222.194982 40.0272407,223.388889 41.5,223.388889 Z M41.5,231.388889 C42.9727593,231.388889 44.1666667,230.194982 44.1666667,228.722222 C44.1666667,227.249463 42.9727593,226.055556 41.5,226.055556 C40.0272407,226.055556 38.8333333,227.249463 38.8333333,228.722222 C38.8333333,230.194982 40.0272407,231.388889 41.5,231.388889 Z M41.5,239.388889 C42.9727593,239.388889 44.1666667,238.194982 44.1666667,236.722222 C44.1666667,235.249463 42.9727593,234.055556 41.5,234.055556 C40.0272407,234.055556 38.8333333,235.249463 38.8333333,236.722222 C38.8333333,238.194982 40.0272407,239.388889 41.5,239.388889 Z" id="Rectangle-94-Copy-2" fill="#1597F5" opacity="0.35" transform="translate(69.500000, 183.000000) rotate(-270.000000) translate(-69.500000, -183.000000) "></path>
                                <g id="left-edge-pulse" transform="translate(0.000000, 10.000000)">
                                    <path d="M4,6.49504371 C4,5.66935387 4.66579723,5 5.5,5 L5.5,5 C6.32842712,5 7,5.6774915 7,6.49504371 L7,43.5049563 C7,44.3306461 6.33420277,45 5.5,45 L5.5,45 C4.67157288,45 4,44.3225085 4,43.5049563 L4,6.49504371 Z" id="Rectangle-51" fill="#1597F5"></path>
                                    <rect id="Rectangle-52" stroke="#1597F5" opacity="0.8" x="2.5" y="3" width="6" height="44" rx="3"></rect>
                                    <rect id="Rectangle-53" stroke="#1597F5" opacity="0.6" x="0.5" y="0.5" width="10" height="49" rx="5"></rect>
                                </g>
                                <g id="left-edge-pulse" transform="translate(128.000000, 10.000000)">
                                    <path d="M4,6.49504371 C4,5.66935387 4.66579723,5 5.5,5 L5.5,5 C6.32842712,5 7,5.6774915 7,6.49504371 L7,43.5049563 C7,44.3306461 6.33420277,45 5.5,45 L5.5,45 C4.67157288,45 4,44.3225085 4,43.5049563 L4,6.49504371 Z" id="Rectangle-51" fill="#1597F5"></path>
                                    <rect id="Rectangle-52" stroke="#1597F5" opacity="0.8" x="2.5" y="3" width="6" height="44" rx="3"></rect>
                                    <rect id="Rectangle-53" stroke="#1597F5" opacity="0.6" x="0.5" y="0.5" width="10" height="49" rx="5"></rect>
                                </g>
                                <g id="left-edge-pulse" transform="translate(0.000000, 84.000000)">
                                    <path d="M4,6.49504371 C4,5.66935387 4.66579723,5 5.5,5 L5.5,5 C6.32842712,5 7,5.6774915 7,6.49504371 L7,43.5049563 C7,44.3306461 6.33420277,45 5.5,45 L5.5,45 C4.67157288,45 4,44.3225085 4,43.5049563 L4,6.49504371 Z" id="Rectangle-51" fill="#1597F5"></path>
                                    <rect id="Rectangle-52" stroke="#1597F5" opacity="0.8" x="2.5" y="3" width="6" height="44" rx="3"></rect>
                                    <rect id="Rectangle-53" stroke="#1597F5" opacity="0.6" x="0.5" y="0.5" width="10" height="49" rx="5"></rect>
                                </g>
                                <g id="left-edge-pulse" transform="translate(128.000000, 84.000000)">
                                    <path d="M4,6.49504371 C4,5.66935387 4.66579723,5 5.5,5 L5.5,5 C6.32842712,5 7,5.6774915 7,6.49504371 L7,43.5049563 C7,44.3306461 6.33420277,45 5.5,45 L5.5,45 C4.67157288,45 4,44.3225085 4,43.5049563 L4,6.49504371 Z" id="Rectangle-51" fill="#1597F5"></path>
                                    <rect id="Rectangle-52" stroke="#1597F5" opacity="0.8" x="2.5" y="3" width="6" height="44" rx="3"></rect>
                                    <rect id="Rectangle-53" stroke="#1597F5" opacity="0.6" x="0.5" y="0.5" width="10" height="49" rx="5"></rect>
                                </g>
                                <g id="left-edge-pulse" transform="translate(0.000000, 158.000000)">
                                    <path d="M4,6.49504371 C4,5.66935387 4.66579723,5 5.5,5 L5.5,5 C6.32842712,5 7,5.6774915 7,6.49504371 L7,43.5049563 C7,44.3306461 6.33420277,45 5.5,45 L5.5,45 C4.67157288,45 4,44.3225085 4,43.5049563 L4,6.49504371 Z" id="Rectangle-51" fill="#1597F5"></path>
                                    <rect id="Rectangle-52" stroke="#1597F5" opacity="0.8" x="2.5" y="3" width="6" height="44" rx="3"></rect>
                                    <rect id="Rectangle-53" stroke="#1597F5" opacity="0.6" x="0.5" y="0.5" width="10" height="49" rx="5"></rect>
                                </g>
                                <g id="left-edge-pulse" transform="translate(128.000000, 158.000000)">
                                    <path d="M4,6.49504371 C4,5.66935387 4.66579723,5 5.5,5 L5.5,5 C6.32842712,5 7,5.6774915 7,6.49504371 L7,43.5049563 C7,44.3306461 6.33420277,45 5.5,45 L5.5,45 C4.67157288,45 4,44.3225085 4,43.5049563 L4,6.49504371 Z" id="Rectangle-51" fill="#1597F5"></path>
                                    <rect id="Rectangle-52" stroke="#1597F5" opacity="0.8" x="2.5" y="3" width="6" height="44" rx="3"></rect>
                                    <rect id="Rectangle-53" stroke="#1597F5" opacity="0.6" x="0.5" y="0.5" width="10" height="49" rx="5"></rect>
                                </g>
                            </g>
                        </g>
                        <g id="Vertical-Halves" transform="translate(748.000000, 0.000000)">
                            <g id="Group-5-Copy" transform="translate(75.500000, 127.000000) rotate(-270.000000) translate(-75.500000, -127.000000) translate(-51.500000, 51.500000)">
                                <g id="iMac" transform="translate(0.000000, 0.000000)">
                                    <path d="M243.995596,2.84217094e-14 C248.968591,2.84217094e-14 253,4.03888524 253,8.99353313 L253,142.006467 C253,146.973458 248.974891,151 243.995596,151 L9.00440395,151 C4.03140897,151 0,146.961115 0,142.006467 L0,8.99353313 C0,4.02654194 4.02510873,2.84217094e-14 9.00440395,2.84217094e-14 L243.995596,2.84217094e-14 Z" id="Border" stroke="#1597F5" stroke-width="2"></path>
                                    <mask id="mask-8" fill="white">
                                        <use xlink:href="#path-7"></use>
                                    </mask>
                                    <use id="Screen" stroke="#1597F5" xlink:href="#path-7"></use>
                                </g>
                            </g>
                            <g id="Halves" transform="translate(15.000000, 17.000000)" fill="#1597F5" opacity="0.35">
                                <path d="M-80,80 L139,80 L139,139 L-80,139 L-80,80 Z M-73,118.888889 C-71.5272407,118.888889 -70.3333333,117.694982 -70.3333333,116.222222 C-70.3333333,114.749463 -71.5272407,113.555556 -73,113.555556 C-74.4727593,113.555556 -75.6666667,114.749463 -75.6666667,116.222222 C-75.6666667,117.694982 -74.4727593,118.888889 -73,118.888889 Z M-73,126.888889 C-71.5272407,126.888889 -70.3333333,125.694982 -70.3333333,124.222222 C-70.3333333,122.749463 -71.5272407,121.555556 -73,121.555556 C-74.4727593,121.555556 -75.6666667,122.749463 -75.6666667,124.222222 C-75.6666667,125.694982 -74.4727593,126.888889 -73,126.888889 Z M-73,134.888889 C-71.5272407,134.888889 -70.3333333,133.694982 -70.3333333,132.222222 C-70.3333333,130.749463 -71.5272407,129.555556 -73,129.555556 C-74.4727593,129.555556 -75.6666667,130.749463 -75.6666667,132.222222 C-75.6666667,133.694982 -74.4727593,134.888889 -73,134.888889 Z" id="Rectangle-94-Copy-2" transform="translate(29.500000, 109.500000) rotate(-270.000000) translate(-29.500000, -109.500000) "></path>
                                <path d="M-18,80 L201,80 L201,139 L-18,139 L-18,80 Z M-11,118.888889 C-9.52724067,118.888889 -8.33333333,117.694982 -8.33333333,116.222222 C-8.33333333,114.749463 -9.52724067,113.555556 -11,113.555556 C-12.4727593,113.555556 -13.6666667,114.749463 -13.6666667,116.222222 C-13.6666667,117.694982 -12.4727593,118.888889 -11,118.888889 Z M-11,126.888889 C-9.52724067,126.888889 -8.33333333,125.694982 -8.33333333,124.222222 C-8.33333333,122.749463 -9.52724067,121.555556 -11,121.555556 C-12.4727593,121.555556 -13.6666667,122.749463 -13.6666667,124.222222 C-13.6666667,125.694982 -12.4727593,126.888889 -11,126.888889 Z M-11,134.888889 C-9.52724067,134.888889 -8.33333333,133.694982 -8.33333333,132.222222 C-8.33333333,130.749463 -9.52724067,129.555556 -11,129.555556 C-12.4727593,129.555556 -13.6666667,130.749463 -13.6666667,132.222222 C-13.6666667,133.694982 -12.4727593,134.888889 -11,134.888889 Z" id="Rectangle-94-Copy-2" transform="translate(91.500000, 109.500000) rotate(-270.000000) translate(-91.500000, -109.500000) "></path>
                            </g>
                            <g id="left-edge-pulse" transform="translate(44.500000, 239.500000) rotate(-90.000000) translate(-44.500000, -239.500000) translate(39.000000, 214.500000)">
                                <path d="M4,6.49504371 C4,5.66935387 4.66579723,5 5.5,5 L5.5,5 C6.32842712,5 7,5.6774915 7,6.49504371 L7,43.5049563 C7,44.3306461 6.33420277,45 5.5,45 L5.5,45 C4.67157288,45 4,44.3225085 4,43.5049563 L4,6.49504371 Z" id="Rectangle-51" fill="#1597F5"></path>
                                <rect id="Rectangle-52" stroke="#1597F5" opacity="0.8" x="2.5" y="3" width="6" height="44" rx="3"></rect>
                                <rect id="Rectangle-53" stroke="#1597F5" opacity="0.6" x="0.5" y="0.5" width="10" height="49" rx="5"></rect>
                            </g>
                            <g id="left-edge-pulse" transform="translate(106.500000, 239.500000) rotate(-90.000000) translate(-106.500000, -239.500000) translate(101.000000, 214.500000)">
                                <path d="M4,6.49504371 C4,5.66935387 4.66579723,5 5.5,5 L5.5,5 C6.32842712,5 7,5.6774915 7,6.49504371 L7,43.5049563 C7,44.3306461 6.33420277,45 5.5,45 L5.5,45 C4.67157288,45 4,44.3225085 4,43.5049563 L4,6.49504371 Z" id="Rectangle-51" fill="#1597F5"></path>
                                <rect id="Rectangle-52" stroke="#1597F5" opacity="0.8" x="2.5" y="3" width="6" height="44" rx="3"></rect>
                                <rect id="Rectangle-53" stroke="#1597F5" opacity="0.6" x="0.5" y="0.5" width="10" height="49" rx="5"></rect>
                            </g>
                        </g>
                        <g id="Two-Thirds" transform="translate(187.000000, 0.000000)">
                            <g id="Group-5-Copy" transform="translate(75.500000, 127.000000) rotate(-270.000000) translate(-75.500000, -127.000000) translate(-51.500000, 51.500000)">
                                <g id="iMac" transform="translate(0.000000, 0.000000)">
                                    <path d="M243.995596,2.84217094e-14 C248.968591,2.84217094e-14 253,4.03888524 253,8.99353313 L253,142.006467 C253,146.973458 248.974891,151 243.995596,151 L9.00440395,151 C4.03140897,151 0,146.961115 0,142.006467 L0,8.99353313 C0,4.02654194 4.02510873,2.84217094e-14 9.00440395,2.84217094e-14 L243.995596,2.84217094e-14 Z" id="Border" stroke="#1597F5" stroke-width="2"></path>
                                    <mask id="mask-10" fill="white">
                                        <use xlink:href="#path-9"></use>
                                    </mask>
                                    <use id="Screen" stroke="#1597F5" xlink:href="#path-9"></use>
                                </g>
                            </g>
                            <g id="Halves" transform="translate(6.000000, 17.000000)">
                                <path d="M-3,86 L142,86 L142,207 L-3,207 L-3,86 Z M4,186.888889 C5.47275933,186.888889 6.66666667,185.694982 6.66666667,184.222222 C6.66666667,182.749463 5.47275933,181.555556 4,181.555556 C2.52724067,181.555556 1.33333333,182.749463 1.33333333,184.222222 C1.33333333,185.694982 2.52724067,186.888889 4,186.888889 Z M4,194.888889 C5.47275933,194.888889 6.66666667,193.694982 6.66666667,192.222222 C6.66666667,190.749463 5.47275933,189.555556 4,189.555556 C2.52724067,189.555556 1.33333333,190.749463 1.33333333,192.222222 C1.33333333,193.694982 2.52724067,194.888889 4,194.888889 Z M4,202.888889 C5.47275933,202.888889 6.66666667,201.694982 6.66666667,200.222222 C6.66666667,198.749463 5.47275933,197.555556 4,197.555556 C2.52724067,197.555556 1.33333333,198.749463 1.33333333,200.222222 C1.33333333,201.694982 2.52724067,202.888889 4,202.888889 Z" id="Rectangle-94-Copy-2" fill="#1597F5" opacity="0.35" transform="translate(69.500000, 146.500000) rotate(-270.000000) translate(-69.500000, -146.500000) "></path>
                                <path d="M34.5,-25.5 L105.5,-25.5 L105.5,95.5 L34.5,95.5 L34.5,-25.5 Z M41.5,75.3888889 C42.9727593,75.3888889 44.1666667,74.1949816 44.1666667,72.7222222 C44.1666667,71.2494629 42.9727593,70.0555556 41.5,70.0555556 C40.0272407,70.0555556 38.8333333,71.2494629 38.8333333,72.7222222 C38.8333333,74.1949816 40.0272407,75.3888889 41.5,75.3888889 Z M41.5,83.3888889 C42.9727593,83.3888889 44.1666667,82.1949816 44.1666667,80.7222222 C44.1666667,79.2494629 42.9727593,78.0555556 41.5,78.0555556 C40.0272407,78.0555556 38.8333333,79.2494629 38.8333333,80.7222222 C38.8333333,82.1949816 40.0272407,83.3888889 41.5,83.3888889 Z M41.5,91.3888889 C42.9727593,91.3888889 44.1666667,90.1949816 44.1666667,88.7222222 C44.1666667,87.2494629 42.9727593,86.0555556 41.5,86.0555556 C40.0272407,86.0555556 38.8333333,87.2494629 38.8333333,88.7222222 C38.8333333,90.1949816 40.0272407,91.3888889 41.5,91.3888889 Z" id="Rectangle-94-Copy-2" fill="#1597F5" opacity="0.35" transform="translate(69.500000, 35.000000) rotate(-270.000000) translate(-69.500000, -35.000000) "></path>
                                <g id="left-edge-pulse" transform="translate(128.000000, 84.000000)">
                                    <path d="M4,6.50413443 C4,5.67342392 4.66579723,5 5.5,5 L5.5,5 C6.32842712,5 7,5.66947892 7,6.50413443 L7,117.495866 C7,118.326576 6.33420277,119 5.5,119 L5.5,119 C4.67157288,119 4,118.330521 4,117.495866 L4,6.50413443 Z" id="Rectangle-51" fill="#1597F5"></path>
                                    <path d="M2.5,5.99699748 L2.5,118.003003 C2.5,119.65529 3.84468349,121 5.5,121 C7.15446217,121 8.5,119.656659 8.5,118.003003 L8.5,5.99699748 C8.5,4.34470985 7.15531651,3 5.5,3 C3.84553783,3 2.5,4.34334077 2.5,5.99699748 Z" id="Rectangle-52" stroke="#1597F5" opacity="0.8"></path>
                                    <path d="M0.5,5.50827186 L0.5,118.491728 C0.5,121.259904 2.73761516,123.5 5.5,123.5 C8.25729621,123.5 10.5,121.255665 10.5,118.491728 L10.5,5.50827186 C10.5,2.74009649 8.26238484,0.5 5.5,0.5 C2.74270379,0.5 0.5,2.7443346 0.5,5.50827186 Z" id="Rectangle-53" stroke="#1597F5" opacity="0.6"></path>
                                </g>
                                <g id="left-edge-pulse" transform="translate(0.000000, 84.000000)">
                                    <path d="M4,6.50413443 C4,5.67342392 4.66579723,5 5.5,5 L5.5,5 C6.32842712,5 7,5.66947892 7,6.50413443 L7,117.495866 C7,118.326576 6.33420277,119 5.5,119 L5.5,119 C4.67157288,119 4,118.330521 4,117.495866 L4,6.50413443 Z" id="Rectangle-51" fill="#1597F5"></path>
                                    <path d="M2.5,5.99699748 L2.5,118.003003 C2.5,119.65529 3.84468349,121 5.5,121 C7.15446217,121 8.5,119.656659 8.5,118.003003 L8.5,5.99699748 C8.5,4.34470985 7.15531651,3 5.5,3 C3.84553783,3 2.5,4.34334077 2.5,5.99699748 Z" id="Rectangle-52" stroke="#1597F5" opacity="0.8"></path>
                                    <path d="M0.5,5.50827186 L0.5,118.491728 C0.5,121.259904 2.73761516,123.5 5.5,123.5 C8.25729621,123.5 10.5,121.255665 10.5,118.491728 L10.5,5.50827186 C10.5,2.74009649 8.26238484,0.5 5.5,0.5 C2.74270379,0.5 0.5,2.7443346 0.5,5.50827186 Z" id="Rectangle-53" stroke="#1597F5" opacity="0.6"></path>
                                </g>
                                <g id="left-edge-pulse" transform="translate(0.000000, 10.000000)">
                                    <path d="M4,6.49504371 C4,5.66935387 4.66579723,5 5.5,5 L5.5,5 C6.32842712,5 7,5.6774915 7,6.49504371 L7,43.5049563 C7,44.3306461 6.33420277,45 5.5,45 L5.5,45 C4.67157288,45 4,44.3225085 4,43.5049563 L4,6.49504371 Z" id="Rectangle-51" fill="#1597F5"></path>
                                    <rect id="Rectangle-52" stroke="#1597F5" opacity="0.8" x="2.5" y="3" width="6" height="44" rx="3"></rect>
                                    <rect id="Rectangle-53" stroke="#1597F5" opacity="0.6" x="0.5" y="0.5" width="10" height="49" rx="5"></rect>
                                </g>
                                <g id="left-edge-pulse" transform="translate(128.000000, 10.000000)">
                                    <path d="M4,6.49504371 C4,5.66935387 4.66579723,5 5.5,5 L5.5,5 C6.32842712,5 7,5.6774915 7,6.49504371 L7,43.5049563 C7,44.3306461 6.33420277,45 5.5,45 L5.5,45 C4.67157288,45 4,44.3225085 4,43.5049563 L4,6.49504371 Z" id="Rectangle-51" fill="#1597F5"></path>
                                    <rect id="Rectangle-52" stroke="#1597F5" opacity="0.8" x="2.5" y="3" width="6" height="44" rx="3"></rect>
                                    <rect id="Rectangle-53" stroke="#1597F5" opacity="0.6" x="0.5" y="0.5" width="10" height="49" rx="5"></rect>
                                </g>
                            </g>
                        </g>
                    </g>
                    <g id="D-key" transform="translate(767.619512, 212.000000)"></g>
                </g>
            </g>
        </g>
    </g>
</svg>